Coordinates
version=1
nRows=8
nColumns=40
inDegrees=yes

Units are S.I. units (second, meters, Newtons, ...)
If the header above contains a line with 'inDegrees', this indicates whether rotational values are in degrees (yes) or radians (no).

endheader
time	pelvis_tilt	pelvis_list	pelvis_rotation	pelvis_tx	pelvis_ty	pelvis_tz	hip_flexion_r	hip_adduction_r	hip_rotation_r	knee_angle_r	knee_angle_r_beta	ankle_angle_r	subtalar_angle_r	mtp_angle_r	hip_flexion_l	hip_adduction_l	hip_rotation_l	knee_angle_l	knee_angle_l_beta	ankle_angle_l	subtalar_angle_l	mtp_angle_l	lumbar_extension	lumbar_bending	lumbar_rotation	arm_flex_r	arm_add_r	arm_rot_r	elbow_flex_r	pro_sup_r	wrist_flex_r	wrist_dev_r	arm_flex_l	arm_add_l	arm_rot_l	elbow_flex_l	pro_sup_l	wrist_flex_l	wrist_dev_l
      3.88300000	    -27.87225470	      3.68489133	      7.54057700	      0.07228836	      1.27393088	     -0.00666921	     66.07505489	    -11.29094492	      0.03334637	     46.19829838	      0.80631242	    -23.45648134	    -17.27656079	      0.00000000	     93.04032923	      7.44572694	      5.47488915	    107.11318347	      1.86947772	    -21.90233851	    -20.39261989	      0.00000000	    -24.56387984	     -4.74670299	     -3.43104185	     62.69835842	      7.76316513	    -53.56609756	     33.23651728	     65.05048183	      0.00000000	      0.00000000	     61.45817577	      3.94892756	    -13.68122663	     26.71216424	      3.45082861	      0.00000000	      0.00000000
      3.90000000	    -28.08067448	      3.41790012	      8.17347565	      0.07203794	      1.27363346	     -0.00757342	     62.68654621	    -11.79912813	     -1.09100153	     43.68307823	      0.76241354	    -24.23116096	    -16.61717178	      0.00000000	     96.62421115	      8.27962383	      5.63644734	    108.82297611	      1.89931923	    -19.51855616	    -19.49091691	      0.00000000	    -24.34880054	     -4.49180901	     -3.77475463	     62.49733059	      7.38905924	    -53.62785751	     33.00985411	     65.02206145	      0.00000000	      0.00000000	     61.47293524	      4.29588425	    -13.78517246	     26.57625409	      3.41272482	      0.00000000	      0.00000000
      3.91700000	    -28.09506967	      3.30855184	      8.80333835	      0.07213905	      1.27360625	     -0.00826686	     60.03686194	    -12.27420113	     -1.98829876	     43.08947824	      0.75205327	    -24.35112761	    -17.14320122	      0.00000000	     99.32931173	      9.29662817	      5.84547889	    109.06387177	      1.90352366	    -16.85487381	    -17.50054625	      0.00000000	    -24.42506650	     -4.30863456	     -4.16767846	     62.35649167	      7.02347119	    -53.51150686	     32.83995711	     65.00874183	      0.00000000	      0.00000000	     61.49014267	      4.53096857	    -13.71993568	     26.54181202	      3.16228807	      0.00000000	      0.00000000
      3.93300000	    -28.20785287	      3.41155840	      9.02688332	      0.07224586	      1.27343351	     -0.00840284	     58.40250983	    -12.47016201	     -2.02065327	     44.10750490	      0.76982119	    -24.12601879	    -17.70721963	      0.00000000	    101.50285901	     10.03082998	      5.59120273	    108.15452381	      1.88765254	    -14.52770973	    -17.49971746	      0.00000000	    -24.44035082	     -4.46320051	     -4.24108200	     62.27722592	      6.68082233	    -53.48944807	     32.65811876	     64.93495875	      0.00000000	      0.00000000	     61.58347126	      4.71762791	    -13.64598591	     26.34636969	      3.58901192	      0.00000000	      0.00000000
      3.95000000	    -28.29427955	      3.63028287	      9.31901866	      0.07248978	      1.27332315	     -0.00855693	     57.63586197	    -12.83532260	     -1.91741507	     46.52243157	      0.81196961	    -23.77258608	    -18.90189925	      0.00000000	    102.81619166	     10.80240158	      5.29472858	    106.16386131	      1.85290893	    -12.59606300	    -17.09309814	      0.00000000	    -24.50442641	     -4.67460162	     -4.47559454	     62.19224212	      6.44969973	    -53.38984729	     32.59750055	     64.82242104	      0.00000000	      0.00000000	     61.66087510	      4.81055782	    -13.48225004	     26.25236749	      3.70506666	      0.00000000	      0.00000000
      3.96700000	    -28.24281399	      3.86139289	      9.33204274	      0.07293909	      1.27345311	     -0.00822964	     57.76735962	    -12.99816449	     -1.43157459	     50.27977388	      0.87754760	    -23.81492578	    -20.06650967	      0.00000000	    103.06898352	     11.27806133	      5.10886075	    103.06818525	      1.79887919	    -11.44003822	    -17.01767834	      0.00000000	    -24.70718302	     -4.93570125	     -4.49867329	     62.18384202	      6.37918034	    -53.39429462	     32.65277878	     64.68454345	      0.00000000	      0.00000000	     61.74847683	      4.83193806	    -13.20450297	     26.27195019	      3.53117518	      0.00000000	      0.00000000
      3.98300000	    -28.00317132	      3.94614975	      9.03089302	      0.07352071	      1.27368408	     -0.00750855	     58.54991396	    -12.82488835	     -0.75237142	     55.26709252	      0.96459273	    -23.60683590	    -21.11466197	      0.00000000	    102.28436605	     11.42793226	      5.23893991	     99.07332632	      1.72915575	    -10.67915859	    -17.24476089	      0.00000000	    -25.05365866	     -5.08866593	     -4.21228679	     62.29148871	      6.34073223	    -53.38968261	     32.69192923	     64.62979657	      0.00000000	      0.00000000	     61.88118038	      4.84050362	    -13.07881651	     26.30451358	      3.44660856	      0.00000000	      0.00000000
      4.00000000	    -27.79797886	      3.94646940	      8.61047892	      0.07393371	      1.27394135	     -0.00674749	     59.97376576	    -12.48975178	      0.20492088	     60.82547612	      1.06160483	    -23.29442781	    -21.79517073	      0.00000000	    100.72551935	     11.23183459	      5.42432110	     94.46032184	      1.64864363	    -10.53260333	    -17.50259585	      0.00000000	    -25.30851647	     -5.18222271	     -3.78979475	     62.41476707	      6.33932361	    -53.32861835	     32.76569514	     64.60125987	      0.00000000	      0.00000000	     61.98090459	      4.84142768	    -13.04291049	     26.39441176	      3.42789710	      0.00000000	      0.00000000
